STARTFONT 2.1
FONT -misc-atadore-medium-r-normal--9-90-100-100-m-80-ISO10646-1
SIZE 9 100 100
FONTBOUNDINGBOX 8 8 0 -1
COMMENT "Generated by fontforge, http://fontforge.sourceforge.net"
STARTPROPERTIES 20
SPACING "P"
CHARSET_REGISTRY "ISO10646"
CHARSET_ENCODING "1"
POINT_SIZE 90
WEIGHT 10
RESOLUTION_X 100
RESOLUTION_Y 100
X_HEIGHT 6
DEFAULT_CHAR 63
FONT_DESCENT 1
FONT_ASCENT 7
_XMBDFED_INFO "Edited with xmbdfed 4.5."
AVERAGE_WIDTH 80
FOUNDRY "classic"
FAMILY_NAME "atadore"
WEIGHT_NAME "medium"
SLANT "R"
SETWIDTH_NAME "normal"
ADD_STYLE_NAME ""
PIXEL_SIZE 9
ENDPROPERTIES
CHARS 207
STARTCHAR space
ENCODING 32
SWIDTH 270 0
DWIDTH 3 0
BBX 0 0 0 0
BITMAP
ENDCHAR
STARTCHAR exclam
ENCODING 33
SWIDTH 270 0
DWIDTH 3 0
BBX 2 7 1 0
BITMAP
C0
C0
C0
C0
C0
00
C0
ENDCHAR
STARTCHAR quotedbl
ENCODING 34
SWIDTH 540 0
DWIDTH 6 0
BBX 5 3 1 4
BITMAP
D8
D8
D8
ENDCHAR
STARTCHAR numbersign
ENCODING 35
SWIDTH 630 0
DWIDTH 7 0
BBX 7 6 0 0
BITMAP
6C
FE
6C
6C
FE
6C
ENDCHAR
STARTCHAR dollar
ENCODING 36
SWIDTH 630 0
DWIDTH 7 0
BBX 6 7 1 0
BITMAP
30
7C
C0
78
0C
F8
30
ENDCHAR
STARTCHAR percent
ENCODING 37
SWIDTH 540 0
DWIDTH 6 0
BBX 5 6 1 0
BITMAP
C8
D8
30
60
D8
98
ENDCHAR
STARTCHAR ampersand
ENCODING 38
SWIDTH 630 0
DWIDTH 7 0
BBX 7 7 0 0
BITMAP
38
6C
38
70
DE
CC
76
ENDCHAR
STARTCHAR quotesingle
ENCODING 39
SWIDTH 270 0
DWIDTH 3 0
BBX 2 3 1 4
BITMAP
C0
C0
C0
ENDCHAR
STARTCHAR parenleft
ENCODING 40
SWIDTH 450 0
DWIDTH 5 0
BBX 4 7 1 0
BITMAP
70
E0
C0
C0
C0
E0
70
ENDCHAR
STARTCHAR parenright
ENCODING 41
SWIDTH 450 0
DWIDTH 5 0
BBX 4 7 1 0
BITMAP
E0
70
30
30
30
70
E0
ENDCHAR
STARTCHAR asterisk
ENCODING 42
SWIDTH 720 0
DWIDTH 8 0
BBX 7 5 1 1
BITMAP
6C
38
FE
38
6C
ENDCHAR
STARTCHAR plus
ENCODING 43
SWIDTH 630 0
DWIDTH 7 0
BBX 6 5 1 1
BITMAP
30
30
FC
30
30
ENDCHAR
STARTCHAR comma
ENCODING 44
SWIDTH 360 0
DWIDTH 4 0
BBX 3 3 1 -1
BITMAP
60
60
C0
ENDCHAR
STARTCHAR hyphen
ENCODING 45
SWIDTH 540 0
DWIDTH 6 0
BBX 5 1 1 3
BITMAP
F8
ENDCHAR
STARTCHAR period
ENCODING 46
SWIDTH 270 0
DWIDTH 3 0
BBX 2 2 1 0
BITMAP
C0
C0
ENDCHAR
STARTCHAR slash
ENCODING 47
SWIDTH 540 0
DWIDTH 6 0
BBX 5 8 1 -1
BITMAP
18
18
30
30
60
60
C0
C0
ENDCHAR
STARTCHAR zero
ENCODING 48
SWIDTH 630 0
DWIDTH 7 0
BBX 6 7 1 0
BITMAP
78
CC
DC
EC
CC
CC
78
ENDCHAR
STARTCHAR one
ENCODING 49
SWIDTH 630 0
DWIDTH 7 0
BBX 4 7 2 0
BITMAP
60
E0
60
60
60
60
F0
ENDCHAR
STARTCHAR two
ENCODING 50
SWIDTH 630 0
DWIDTH 7 0
BBX 6 7 1 0
BITMAP
78
CC
0C
18
30
60
FC
ENDCHAR
STARTCHAR three
ENCODING 51
SWIDTH 630 0
DWIDTH 7 0
BBX 6 7 1 0
BITMAP
FC
18
30
18
0C
CC
78
ENDCHAR
STARTCHAR four
ENCODING 52
SWIDTH 630 0
DWIDTH 7 0
BBX 6 7 1 0
BITMAP
18
38
78
D8
FC
18
18
ENDCHAR
STARTCHAR five
ENCODING 53
SWIDTH 630 0
DWIDTH 7 0
BBX 6 7 1 0
BITMAP
FC
C0
F8
0C
0C
CC
78
ENDCHAR
STARTCHAR six
ENCODING 54
SWIDTH 630 0
DWIDTH 7 0
BBX 6 7 1 0
BITMAP
78
C0
C0
F8
CC
CC
78
ENDCHAR
STARTCHAR seven
ENCODING 55
SWIDTH 630 0
DWIDTH 7 0
BBX 6 7 1 0
BITMAP
FC
0C
18
30
30
30
30
ENDCHAR
STARTCHAR eight
ENCODING 56
SWIDTH 630 0
DWIDTH 7 0
BBX 6 7 1 0
BITMAP
78
CC
CC
78
CC
CC
78
ENDCHAR
STARTCHAR nine
ENCODING 57
SWIDTH 630 0
DWIDTH 7 0
BBX 6 7 1 0
BITMAP
78
CC
CC
7C
0C
18
70
ENDCHAR
STARTCHAR colon
ENCODING 58
SWIDTH 270 0
DWIDTH 3 0
BBX 2 5 1 1
BITMAP
C0
C0
00
C0
C0
ENDCHAR
STARTCHAR semicolon
ENCODING 59
SWIDTH 360 0
DWIDTH 4 0
BBX 3 6 1 0
BITMAP
60
60
00
60
60
C0
ENDCHAR
STARTCHAR less
ENCODING 60
SWIDTH 540 0
DWIDTH 6 0
BBX 5 7 1 0
BITMAP
18
30
60
C0
60
30
18
ENDCHAR
STARTCHAR equal
ENCODING 61
SWIDTH 450 0
DWIDTH 5 0
BBX 4 3 1 2
BITMAP
F0
00
F0
ENDCHAR
STARTCHAR greater
ENCODING 62
SWIDTH 540 0
DWIDTH 6 0
BBX 5 7 1 0
BITMAP
C0
60
30
18
30
60
C0
ENDCHAR
STARTCHAR question
ENCODING 63
SWIDTH 630 0
DWIDTH 7 0
BBX 6 7 1 0
BITMAP
78
CC
0C
18
30
00
30
ENDCHAR
STARTCHAR at
ENCODING 64
SWIDTH 630 0
DWIDTH 7 0
BBX 6 7 1 0
BITMAP
78
CC
DC
D4
DC
C0
7C
ENDCHAR
STARTCHAR A
ENCODING 65
SWIDTH 630 0
DWIDTH 7 0
BBX 6 7 1 0
BITMAP
30
78
CC
CC
FC
CC
CC
ENDCHAR
STARTCHAR B
ENCODING 66
SWIDTH 630 0
DWIDTH 7 0
BBX 6 7 1 0
BITMAP
F8
CC
CC
F8
CC
CC
F8
ENDCHAR
STARTCHAR C
ENCODING 67
SWIDTH 630 0
DWIDTH 7 0
BBX 6 7 1 0
BITMAP
78
CC
C0
C0
C0
CC
78
ENDCHAR
STARTCHAR D
ENCODING 68
SWIDTH 630 0
DWIDTH 7 0
BBX 6 7 1 0
BITMAP
F0
D8
CC
CC
CC
D8
F0
ENDCHAR
STARTCHAR E
ENCODING 69
SWIDTH 630 0
DWIDTH 7 0
BBX 6 7 1 0
BITMAP
FC
C0
C0
F8
C0
C0
FC
ENDCHAR
STARTCHAR F
ENCODING 70
SWIDTH 630 0
DWIDTH 7 0
BBX 6 7 1 0
BITMAP
FC
C0
C0
F8
C0
C0
C0
ENDCHAR
STARTCHAR G
ENCODING 71
SWIDTH 630 0
DWIDTH 7 0
BBX 6 7 1 0
BITMAP
7C
C0
C0
DC
CC
CC
7C
ENDCHAR
STARTCHAR H
ENCODING 72
SWIDTH 630 0
DWIDTH 7 0
BBX 6 7 1 0
BITMAP
CC
CC
CC
FC
CC
CC
CC
ENDCHAR
STARTCHAR I
ENCODING 73
SWIDTH 450 0
DWIDTH 5 0
BBX 4 7 1 0
BITMAP
F0
60
60
60
60
60
F0
ENDCHAR
STARTCHAR J
ENCODING 74
SWIDTH 540 0
DWIDTH 6 0
BBX 5 7 1 0
BITMAP
18
18
18
18
18
D8
70
ENDCHAR
STARTCHAR K
ENCODING 75
SWIDTH 630 0
DWIDTH 7 0
BBX 6 7 1 0
BITMAP
CC
D8
F0
E0
F0
D8
CC
ENDCHAR
STARTCHAR L
ENCODING 76
SWIDTH 540 0
DWIDTH 6 0
BBX 5 7 1 0
BITMAP
C0
C0
C0
C0
C0
C0
F8
ENDCHAR
STARTCHAR M
ENCODING 77
SWIDTH 720 0
DWIDTH 8 0
BBX 7 7 1 0
BITMAP
C6
EE
FE
D6
C6
C6
C6
ENDCHAR
STARTCHAR N
ENCODING 78
SWIDTH 630 0
DWIDTH 7 0
BBX 6 7 1 0
BITMAP
CC
EC
FC
FC
DC
CC
CC
ENDCHAR
STARTCHAR O
ENCODING 79
SWIDTH 630 0
DWIDTH 7 0
BBX 6 7 1 0
BITMAP
78
CC
CC
CC
CC
CC
78
ENDCHAR
STARTCHAR P
ENCODING 80
SWIDTH 630 0
DWIDTH 7 0
BBX 6 7 1 0
BITMAP
F8
CC
CC
F8
C0
C0
C0
ENDCHAR
STARTCHAR Q
ENCODING 81
SWIDTH 630 0
DWIDTH 7 0
BBX 6 7 1 0
BITMAP
78
CC
CC
CC
EC
D8
6C
ENDCHAR
STARTCHAR R
ENCODING 82
SWIDTH 630 0
DWIDTH 7 0
BBX 6 7 1 0
BITMAP
F8
CC
CC
F8
D8
CC
CC
ENDCHAR
STARTCHAR S
ENCODING 83
SWIDTH 630 0
DWIDTH 7 0
BBX 6 7 1 0
BITMAP
78
CC
C0
78
0C
CC
78
ENDCHAR
STARTCHAR T
ENCODING 84
SWIDTH 630 0
DWIDTH 7 0
BBX 6 7 1 0
BITMAP
FC
30
30
30
30
30
30
ENDCHAR
STARTCHAR U
ENCODING 85
SWIDTH 630 0
DWIDTH 7 0
BBX 6 7 1 0
BITMAP
CC
CC
CC
CC
CC
CC
78
ENDCHAR
STARTCHAR V
ENCODING 86
SWIDTH 630 0
DWIDTH 7 0
BBX 6 7 1 0
BITMAP
CC
CC
CC
78
78
30
30
ENDCHAR
STARTCHAR W
ENCODING 87
SWIDTH 720 0
DWIDTH 8 0
BBX 7 7 1 0
BITMAP
C6
C6
C6
D6
FE
EE
C6
ENDCHAR
STARTCHAR X
ENCODING 88
SWIDTH 630 0
DWIDTH 7 0
BBX 6 7 1 0
BITMAP
CC
CC
78
30
78
CC
CC
ENDCHAR
STARTCHAR Y
ENCODING 89
SWIDTH 630 0
DWIDTH 7 0
BBX 6 7 1 0
BITMAP
CC
CC
CC
78
30
30
30
ENDCHAR
STARTCHAR Z
ENCODING 90
SWIDTH 630 0
DWIDTH 7 0
BBX 6 7 1 0
BITMAP
FC
0C
18
30
60
C0
FC
ENDCHAR
STARTCHAR bracketleft
ENCODING 91
SWIDTH 450 0
DWIDTH 5 0
BBX 4 7 1 0
BITMAP
F0
C0
C0
C0
C0
C0
F0
ENDCHAR
STARTCHAR backslash
ENCODING 92
SWIDTH 540 0
DWIDTH 6 0
BBX 5 8 1 -1
BITMAP
C0
C0
60
60
30
30
18
18
ENDCHAR
STARTCHAR bracketright
ENCODING 93
SWIDTH 450 0
DWIDTH 5 0
BBX 4 7 1 0
BITMAP
F0
30
30
30
30
30
F0
ENDCHAR
STARTCHAR asciicircum
ENCODING 94
SWIDTH 540 0
DWIDTH 6 0
BBX 5 3 1 4
BITMAP
20
70
D8
ENDCHAR
STARTCHAR underscore
ENCODING 95
SWIDTH 360 0
DWIDTH 4 0
BBX 3 1 1 0
BITMAP
E0
ENDCHAR
STARTCHAR grave
ENCODING 96
SWIDTH 450 0
DWIDTH 5 0
BBX 4 3 1 3
BITMAP
C0
60
30
ENDCHAR
STARTCHAR a
ENCODING 97
SWIDTH 630 0
DWIDTH 7 0
BBX 6 5 1 0
BITMAP
78
0C
7C
CC
7C
ENDCHAR
STARTCHAR b
ENCODING 98
SWIDTH 630 0
DWIDTH 7 0
BBX 6 7 1 0
BITMAP
C0
C0
F8
CC
CC
CC
F8
ENDCHAR
STARTCHAR c
ENCODING 99
SWIDTH 540 0
DWIDTH 6 0
BBX 5 5 1 0
BITMAP
78
C0
C0
C0
78
ENDCHAR
STARTCHAR d
ENCODING 100
SWIDTH 630 0
DWIDTH 7 0
BBX 6 7 1 0
BITMAP
0C
0C
7C
CC
CC
CC
7C
ENDCHAR
STARTCHAR e
ENCODING 101
SWIDTH 630 0
DWIDTH 7 0
BBX 6 5 1 0
BITMAP
78
CC
FC
C0
78
ENDCHAR
STARTCHAR f
ENCODING 102
SWIDTH 540 0
DWIDTH 6 0
BBX 5 7 1 0
BITMAP
38
60
F8
60
60
60
60
ENDCHAR
STARTCHAR g
ENCODING 103
SWIDTH 630 0
DWIDTH 7 0
BBX 6 6 1 -1
BITMAP
7C
CC
CC
7C
0C
F8
ENDCHAR
STARTCHAR h
ENCODING 104
SWIDTH 630 0
DWIDTH 7 0
BBX 6 7 1 0
BITMAP
C0
C0
F8
CC
CC
CC
CC
ENDCHAR
STARTCHAR i
ENCODING 105
SWIDTH 450 0
DWIDTH 5 0
BBX 4 7 1 0
BITMAP
60
00
E0
60
60
60
F0
ENDCHAR
STARTCHAR j
ENCODING 106
SWIDTH 360 0
DWIDTH 4 0
BBX 3 8 1 -1
BITMAP
60
00
60
60
60
60
60
C0
ENDCHAR
STARTCHAR k
ENCODING 107
SWIDTH 630 0
DWIDTH 7 0
BBX 6 7 1 0
BITMAP
C0
C0
CC
D8
F0
D8
CC
ENDCHAR
STARTCHAR l
ENCODING 108
SWIDTH 450 0
DWIDTH 5 0
BBX 4 7 1 0
BITMAP
E0
60
60
60
60
60
F0
ENDCHAR
STARTCHAR m
ENCODING 109
SWIDTH 720 0
DWIDTH 8 0
BBX 7 5 1 0
BITMAP
EC
FE
D6
C6
C6
ENDCHAR
STARTCHAR n
ENCODING 110
SWIDTH 630 0
DWIDTH 7 0
BBX 6 5 1 0
BITMAP
F8
CC
CC
CC
CC
ENDCHAR
STARTCHAR o
ENCODING 111
SWIDTH 630 0
DWIDTH 7 0
BBX 6 5 1 0
BITMAP
78
CC
CC
CC
78
ENDCHAR
STARTCHAR p
ENCODING 112
SWIDTH 630 0
DWIDTH 7 0
BBX 6 6 1 -1
BITMAP
F8
CC
CC
CC
F8
C0
ENDCHAR
STARTCHAR q
ENCODING 113
SWIDTH 630 0
DWIDTH 7 0
BBX 6 6 1 -1
BITMAP
7C
CC
CC
CC
7C
0C
ENDCHAR
STARTCHAR r
ENCODING 114
SWIDTH 540 0
DWIDTH 6 0
BBX 5 5 1 0
BITMAP
F0
D8
C0
C0
C0
ENDCHAR
STARTCHAR s
ENCODING 115
SWIDTH 630 0
DWIDTH 7 0
BBX 6 5 1 0
BITMAP
7C
C0
78
0C
F8
ENDCHAR
STARTCHAR t
ENCODING 116
SWIDTH 450 0
DWIDTH 5 0
BBX 4 6 1 0
BITMAP
60
F0
60
60
60
30
ENDCHAR
STARTCHAR u
ENCODING 117
SWIDTH 630 0
DWIDTH 7 0
BBX 6 5 1 0
BITMAP
CC
CC
CC
CC
7C
ENDCHAR
STARTCHAR v
ENCODING 118
SWIDTH 630 0
DWIDTH 7 0
BBX 6 5 1 0
BITMAP
CC
CC
CC
78
30
ENDCHAR
STARTCHAR w
ENCODING 119
SWIDTH 720 0
DWIDTH 8 0
BBX 7 5 1 0
BITMAP
C6
C6
D6
7C
6C
ENDCHAR
STARTCHAR x
ENCODING 120
SWIDTH 630 0
DWIDTH 7 0
BBX 6 5 1 0
BITMAP
CC
78
30
78
CC
ENDCHAR
STARTCHAR y
ENCODING 121
SWIDTH 630 0
DWIDTH 7 0
BBX 6 6 1 -1
BITMAP
CC
CC
CC
7C
0C
F8
ENDCHAR
STARTCHAR z
ENCODING 122
SWIDTH 630 0
DWIDTH 7 0
BBX 6 5 1 0
BITMAP
FC
18
30
60
FC
ENDCHAR
STARTCHAR braceleft
ENCODING 123
SWIDTH 540 0
DWIDTH 6 0
BBX 5 7 1 0
BITMAP
38
60
60
C0
60
60
38
ENDCHAR
STARTCHAR bar
ENCODING 124
SWIDTH 270 0
DWIDTH 3 0
BBX 2 8 1 -1
BITMAP
C0
C0
C0
C0
C0
C0
C0
C0
ENDCHAR
STARTCHAR braceright
ENCODING 125
SWIDTH 540 0
DWIDTH 6 0
BBX 5 7 1 0
BITMAP
E0
30
30
18
30
30
E0
ENDCHAR
STARTCHAR asciitilde
ENCODING 126
SWIDTH 720 0
DWIDTH 8 0
BBX 7 4 1 2
BITMAP
60
F2
9E
0C
ENDCHAR
STARTCHAR uni00A0
ENCODING 160
SWIDTH 0 0
DWIDTH 0 0
BBX 0 0 0 0
BITMAP
ENDCHAR
STARTCHAR exclamdown
ENCODING 161
SWIDTH 270 0
DWIDTH 3 0
BBX 2 7 1 -1
BITMAP
C0
00
C0
C0
C0
C0
C0
ENDCHAR
STARTCHAR cent
ENCODING 162
SWIDTH 540 0
DWIDTH 6 0
BBX 5 8 1 -1
BITMAP
30
30
78
C0
C0
78
30
30
ENDCHAR
STARTCHAR sterling
ENCODING 163
SWIDTH 630 0
DWIDTH 7 0
BBX 6 7 1 0
BITMAP
38
74
60
F8
60
60
FC
ENDCHAR
STARTCHAR currency
ENCODING 164
SWIDTH 630 0
DWIDTH 7 0
BBX 6 7 1 0
BITMAP
3C
60
F8
60
F8
60
3C
ENDCHAR
STARTCHAR yen
ENCODING 165
SWIDTH 630 0
DWIDTH 7 0
BBX 6 7 1 0
BITMAP
CC
CC
78
30
78
30
30
ENDCHAR
STARTCHAR brokenbar
ENCODING 166
SWIDTH 180 0
DWIDTH 2 0
BBX 2 7 1 0
BITMAP
C0
C0
C0
00
C0
C0
C0
ENDCHAR
STARTCHAR section
ENCODING 167
SWIDTH 720 0
DWIDTH 8 0
BBX 8 8 0 -1
BITMAP
0E
1B
3C
66
66
3C
D8
70
ENDCHAR
STARTCHAR dieresis
ENCODING 168
SWIDTH 720 0
DWIDTH 8 0
BBX 6 1 1 6
BITMAP
CC
ENDCHAR
STARTCHAR copyright
ENCODING 169
SWIDTH 720 0
DWIDTH 8 0
BBX 8 8 0 -1
BITMAP
7E
C3
BD
B1
B1
BD
C3
7E
ENDCHAR
STARTCHAR ordfeminine
ENCODING 170
SWIDTH 630 0
DWIDTH 7 0
BBX 6 7 1 -1
BITMAP
78
0C
7C
CC
7C
00
78
ENDCHAR
STARTCHAR guillemotleft
ENCODING 171
SWIDTH 720 0
DWIDTH 8 0
BBX 8 7 0 0
BITMAP
1B
36
6C
D8
6C
36
1B
ENDCHAR
STARTCHAR logicalnot
ENCODING 172
SWIDTH 450 0
DWIDTH 5 0
BBX 4 4 1 0
BITMAP
F0
30
30
30
ENDCHAR
STARTCHAR uni00AD
ENCODING 173
SWIDTH 0 0
DWIDTH 0 0
BBX 0 0 0 0
BITMAP
ENDCHAR
STARTCHAR registered
ENCODING 174
SWIDTH 720 0
DWIDTH 8 0
BBX 8 8 0 -1
BITMAP
7E
C3
BD
A5
B9
AD
C3
7E
ENDCHAR
STARTCHAR macron
ENCODING 175
SWIDTH 540 0
DWIDTH 6 0
BBX 4 1 2 6
BITMAP
F0
ENDCHAR
STARTCHAR degree
ENCODING 176
SWIDTH 540 0
DWIDTH 6 0
BBX 5 3 1 4
BITMAP
70
D8
70
ENDCHAR
STARTCHAR plusminus
ENCODING 177
SWIDTH 630 0
DWIDTH 7 0
BBX 6 7 1 0
BITMAP
30
30
FC
30
30
00
FC
ENDCHAR
STARTCHAR uni00B2
ENCODING 178
SWIDTH 540 0
DWIDTH 6 0
BBX 5 5 1 2
BITMAP
70
D8
30
60
F8
ENDCHAR
STARTCHAR uni00B3
ENCODING 179
SWIDTH 540 0
DWIDTH 6 0
BBX 5 5 1 2
BITMAP
F0
18
70
18
F0
ENDCHAR
STARTCHAR acute
ENCODING 180
SWIDTH 540 0
DWIDTH 6 0
BBX 4 3 2 4
BITMAP
30
60
C0
ENDCHAR
STARTCHAR uni00B5
ENCODING 181
SWIDTH 720 0
DWIDTH 8 0
BBX 8 6 0 -1
BITMAP
6C
6C
6C
6C
7F
C0
ENDCHAR
STARTCHAR paragraph
ENCODING 182
SWIDTH 630 0
DWIDTH 7 0
BBX 6 8 1 -1
BITMAP
7C
D4
D4
D4
74
14
14
14
ENDCHAR
STARTCHAR periodcentered
ENCODING 183
SWIDTH 450 0
DWIDTH 5 0
BBX 2 2 3 2
BITMAP
C0
C0
ENDCHAR
STARTCHAR cedilla
ENCODING 184
SWIDTH 450 0
DWIDTH 5 0
BBX 3 3 2 -1
BITMAP
20
20
E0
ENDCHAR
STARTCHAR uni00B9
ENCODING 185
SWIDTH 540 0
DWIDTH 6 0
BBX 4 5 1 2
BITMAP
60
E0
60
60
F0
ENDCHAR
STARTCHAR ordmasculine
ENCODING 186
SWIDTH 630 0
DWIDTH 7 0
BBX 6 7 1 -1
BITMAP
78
CC
CC
CC
78
00
78
ENDCHAR
STARTCHAR guillemotright
ENCODING 187
SWIDTH 720 0
DWIDTH 8 0
BBX 8 7 0 0
BITMAP
D8
6C
36
1B
36
6C
D8
ENDCHAR
STARTCHAR onequarter
ENCODING 188
SWIDTH 720 0
DWIDTH 8 0
BBX 8 8 0 -1
BITMAP
C6
CC
D8
36
6E
D6
9F
06
ENDCHAR
STARTCHAR onehalf
ENCODING 189
SWIDTH 720 0
DWIDTH 8 0
BBX 8 8 0 -1
BITMAP
C6
CC
D8
36
6B
C3
86
0F
ENDCHAR
STARTCHAR threequarters
ENCODING 190
SWIDTH 720 0
DWIDTH 8 0
BBX 8 8 0 -1
BITMAP
E6
6C
78
F6
6E
D6
9F
06
ENDCHAR
STARTCHAR questiondown
ENCODING 191
SWIDTH 630 0
DWIDTH 7 0
BBX 6 7 1 -1
BITMAP
30
00
30
60
C0
CC
78
ENDCHAR
STARTCHAR Agrave
ENCODING 192
SWIDTH 630 0
DWIDTH 7 0
BBX 6 8 1 -1
BITMAP
60
30
00
30
78
CC
FC
CC
ENDCHAR
STARTCHAR Aacute
ENCODING 193
SWIDTH 630 0
DWIDTH 7 0
BBX 6 8 1 -1
BITMAP
18
30
00
30
78
CC
FC
CC
ENDCHAR
STARTCHAR Acircumflex
ENCODING 194
SWIDTH 630 0
DWIDTH 7 0
BBX 6 8 1 -1
BITMAP
30
78
00
30
78
CC
FC
CC
ENDCHAR
STARTCHAR Atilde
ENCODING 195
SWIDTH 630 0
DWIDTH 7 0
BBX 6 8 1 -1
BITMAP
68
B0
00
30
78
CC
FC
CC
ENDCHAR
STARTCHAR Adieresis
ENCODING 196
SWIDTH 630 0
DWIDTH 7 0
BBX 6 7 1 0
BITMAP
CC
00
30
78
CC
FC
CC
ENDCHAR
STARTCHAR Aring
ENCODING 197
SWIDTH 630 0
DWIDTH 7 0
BBX 6 7 1 0
BITMAP
30
48
30
78
CC
FC
CC
ENDCHAR
STARTCHAR AE
ENCODING 198
SWIDTH 720 0
DWIDTH 8 0
BBX 8 7 0 0
BITMAP
3F
78
D8
DE
F8
D8
DF
ENDCHAR
STARTCHAR Ccedilla
ENCODING 199
SWIDTH 630 0
DWIDTH 7 0
BBX 6 7 1 -1
BITMAP
78
CC
C0
CC
78
10
70
ENDCHAR
STARTCHAR Egrave
ENCODING 200
SWIDTH 630 0
DWIDTH 7 0
BBX 6 7 1 0
BITMAP
60
30
FC
C0
F8
C0
FC
ENDCHAR
STARTCHAR Eacute
ENCODING 201
SWIDTH 630 0
DWIDTH 7 0
BBX 6 7 1 0
BITMAP
18
30
FC
C0
F8
C0
FC
ENDCHAR
STARTCHAR Ecircumflex
ENCODING 202
SWIDTH 630 0
DWIDTH 7 0
BBX 6 7 1 0
BITMAP
30
78
FC
C0
F8
C0
FC
ENDCHAR
STARTCHAR Edieresis
ENCODING 203
SWIDTH 630 0
DWIDTH 7 0
BBX 6 7 1 0
BITMAP
CC
00
FC
C0
F8
C0
FC
ENDCHAR
STARTCHAR Igrave
ENCODING 204
SWIDTH 540 0
DWIDTH 6 0
BBX 4 7 2 0
BITMAP
C0
60
F0
60
60
60
F0
ENDCHAR
STARTCHAR Iacute
ENCODING 205
SWIDTH 540 0
DWIDTH 6 0
BBX 4 7 2 0
BITMAP
30
60
F0
60
60
60
F0
ENDCHAR
STARTCHAR Icircumflex
ENCODING 206
SWIDTH 540 0
DWIDTH 6 0
BBX 4 7 2 0
BITMAP
60
F0
00
F0
60
60
F0
ENDCHAR
STARTCHAR Idieresis
ENCODING 207
SWIDTH 630 0
DWIDTH 7 0
BBX 6 7 1 0
BITMAP
CC
00
78
30
30
30
78
ENDCHAR
STARTCHAR Eth
ENCODING 208
SWIDTH 630 0
DWIDTH 7 0
BBX 7 7 0 0
BITMAP
7C
66
66
F6
66
66
7C
ENDCHAR
STARTCHAR Ntilde
ENCODING 209
SWIDTH 630 0
DWIDTH 7 0
BBX 6 7 1 0
BITMAP
68
B0
00
CC
EC
DC
CC
ENDCHAR
STARTCHAR Ograve
ENCODING 210
SWIDTH 540 0
DWIDTH 6 0
BBX 6 8 1 -1
BITMAP
60
30
78
CC
CC
CC
CC
78
ENDCHAR
STARTCHAR Oacute
ENCODING 211
SWIDTH 630 0
DWIDTH 7 0
BBX 6 8 1 -1
BITMAP
18
30
78
CC
CC
CC
CC
78
ENDCHAR
STARTCHAR Ocircumflex
ENCODING 212
SWIDTH 630 0
DWIDTH 7 0
BBX 6 8 1 -1
BITMAP
30
78
00
78
CC
CC
CC
78
ENDCHAR
STARTCHAR Otilde
ENCODING 213
SWIDTH 630 0
DWIDTH 7 0
BBX 6 8 1 -1
BITMAP
68
B0
78
CC
CC
CC
CC
78
ENDCHAR
STARTCHAR Odieresis
ENCODING 214
SWIDTH 630 0
DWIDTH 7 0
BBX 6 7 1 0
BITMAP
CC
00
78
CC
CC
CC
78
ENDCHAR
STARTCHAR multiply
ENCODING 215
SWIDTH 540 0
DWIDTH 6 0
BBX 5 4 1 1
BITMAP
D8
70
70
D8
ENDCHAR
STARTCHAR Oslash
ENCODING 216
SWIDTH 630 0
DWIDTH 7 0
BBX 6 8 1 -1
BITMAP
04
78
CC
DC
EC
CC
78
80
ENDCHAR
STARTCHAR Ugrave
ENCODING 217
SWIDTH 630 0
DWIDTH 7 0
BBX 6 7 1 0
BITMAP
60
30
CC
CC
CC
CC
78
ENDCHAR
STARTCHAR Uacute
ENCODING 218
SWIDTH 630 0
DWIDTH 7 0
BBX 6 7 1 0
BITMAP
18
30
CC
CC
CC
CC
78
ENDCHAR
STARTCHAR Ucircumflex
ENCODING 219
SWIDTH 630 0
DWIDTH 7 0
BBX 6 8 1 -1
BITMAP
30
78
00
CC
CC
CC
CC
78
ENDCHAR
STARTCHAR Udieresis
ENCODING 220
SWIDTH 630 0
DWIDTH 7 0
BBX 6 7 1 0
BITMAP
CC
00
CC
CC
CC
CC
78
ENDCHAR
STARTCHAR Yacute
ENCODING 221
SWIDTH 630 0
DWIDTH 7 0
BBX 6 7 1 0
BITMAP
18
30
CC
CC
78
30
30
ENDCHAR
STARTCHAR Thorn
ENCODING 222
SWIDTH 630 0
DWIDTH 7 0
BBX 6 7 1 0
BITMAP
C0
C0
F8
CC
CC
F8
C0
ENDCHAR
STARTCHAR germandbls
ENCODING 223
SWIDTH 630 0
DWIDTH 7 0
BBX 6 8 1 -1
BITMAP
78
CC
CC
D8
CC
CC
D8
C0
ENDCHAR
STARTCHAR agrave
ENCODING 224
SWIDTH 630 0
DWIDTH 7 0
BBX 6 7 1 0
BITMAP
60
30
00
78
0C
FC
7C
ENDCHAR
STARTCHAR aacute
ENCODING 225
SWIDTH 630 0
DWIDTH 7 0
BBX 6 7 1 0
BITMAP
18
30
00
78
0C
FC
7C
ENDCHAR
STARTCHAR acircumflex
ENCODING 226
SWIDTH 630 0
DWIDTH 7 0
BBX 6 7 1 0
BITMAP
30
CC
00
78
0C
FC
7C
ENDCHAR
STARTCHAR atilde
ENCODING 227
SWIDTH 630 0
DWIDTH 7 0
BBX 6 7 1 0
BITMAP
68
B0
00
78
0C
FC
7C
ENDCHAR
STARTCHAR adieresis
ENCODING 228
SWIDTH 630 0
DWIDTH 7 0
BBX 6 7 1 0
BITMAP
CC
00
78
0C
7C
CC
7C
ENDCHAR
STARTCHAR aring
ENCODING 229
SWIDTH 630 0
DWIDTH 7 0
BBX 6 7 1 0
BITMAP
30
48
30
78
0C
FC
7C
ENDCHAR
STARTCHAR ae
ENCODING 230
SWIDTH 720 0
DWIDTH 8 0
BBX 8 5 0 0
BITMAP
7E
1B
7F
D8
7E
ENDCHAR
STARTCHAR ccedilla
ENCODING 231
SWIDTH 540 0
DWIDTH 6 0
BBX 5 6 1 -1
BITMAP
78
C0
C0
78
10
30
ENDCHAR
STARTCHAR egrave
ENCODING 232
SWIDTH 630 0
DWIDTH 7 0
BBX 6 7 1 0
BITMAP
60
30
00
78
FC
C0
78
ENDCHAR
STARTCHAR eacute
ENCODING 233
SWIDTH 630 0
DWIDTH 7 0
BBX 6 7 1 0
BITMAP
18
30
00
78
FC
C0
78
ENDCHAR
STARTCHAR ecircumflex
ENCODING 234
SWIDTH 630 0
DWIDTH 7 0
BBX 6 7 1 0
BITMAP
30
78
00
78
FC
C0
78
ENDCHAR
STARTCHAR edieresis
ENCODING 235
SWIDTH 630 0
DWIDTH 7 0
BBX 6 7 1 0
BITMAP
CC
00
78
CC
FC
C0
78
ENDCHAR
STARTCHAR igrave
ENCODING 236
SWIDTH 540 0
DWIDTH 6 0
BBX 5 7 1 0
BITMAP
C0
60
00
70
30
30
78
ENDCHAR
STARTCHAR iacute
ENCODING 237
SWIDTH 540 0
DWIDTH 6 0
BBX 4 7 2 0
BITMAP
30
60
00
E0
60
60
F0
ENDCHAR
STARTCHAR icircumflex
ENCODING 238
SWIDTH 540 0
DWIDTH 6 0
BBX 4 7 2 0
BITMAP
60
F0
00
E0
60
60
F0
ENDCHAR
STARTCHAR idieresis
ENCODING 239
SWIDTH 630 0
DWIDTH 7 0
BBX 6 7 1 0
BITMAP
CC
00
00
70
30
30
78
ENDCHAR
STARTCHAR eth
ENCODING 240
SWIDTH 630 0
DWIDTH 7 0
BBX 6 7 1 0
BITMAP
D8
78
CC
7C
CC
CC
78
ENDCHAR
STARTCHAR ntilde
ENCODING 241
SWIDTH 630 0
DWIDTH 7 0
BBX 6 7 1 0
BITMAP
68
B0
00
F8
CC
CC
CC
ENDCHAR
STARTCHAR ograve
ENCODING 242
SWIDTH 630 0
DWIDTH 7 0
BBX 6 7 1 0
BITMAP
60
30
00
78
CC
CC
78
ENDCHAR
STARTCHAR oacute
ENCODING 243
SWIDTH 630 0
DWIDTH 7 0
BBX 6 7 1 0
BITMAP
18
30
00
78
CC
CC
78
ENDCHAR
STARTCHAR ocircumflex
ENCODING 244
SWIDTH 630 0
DWIDTH 7 0
BBX 6 7 1 0
BITMAP
30
78
00
78
CC
CC
78
ENDCHAR
STARTCHAR otilde
ENCODING 245
SWIDTH 630 0
DWIDTH 7 0
BBX 6 7 1 0
BITMAP
68
B0
00
78
CC
CC
78
ENDCHAR
STARTCHAR odieresis
ENCODING 246
SWIDTH 630 0
DWIDTH 7 0
BBX 6 7 1 0
BITMAP
CC
00
78
CC
CC
CC
78
ENDCHAR
STARTCHAR divide
ENCODING 247
SWIDTH 630 0
DWIDTH 7 0
BBX 6 7 1 0
BITMAP
30
30
00
FC
00
30
30
ENDCHAR
STARTCHAR oslash
ENCODING 248
SWIDTH 630 0
DWIDTH 7 0
BBX 6 7 1 -1
BITMAP
04
78
DC
EC
CC
78
80
ENDCHAR
STARTCHAR ugrave
ENCODING 249
SWIDTH 630 0
DWIDTH 7 0
BBX 6 7 1 0
BITMAP
60
30
00
CC
CC
CC
7C
ENDCHAR
STARTCHAR uacute
ENCODING 250
SWIDTH 630 0
DWIDTH 7 0
BBX 6 7 1 0
BITMAP
18
30
00
CC
CC
CC
7C
ENDCHAR
STARTCHAR ucircumflex
ENCODING 251
SWIDTH 630 0
DWIDTH 7 0
BBX 6 7 1 0
BITMAP
30
78
00
CC
CC
CC
7C
ENDCHAR
STARTCHAR udieresis
ENCODING 252
SWIDTH 630 0
DWIDTH 7 0
BBX 6 7 1 0
BITMAP
CC
00
CC
CC
CC
CC
7C
ENDCHAR
STARTCHAR yacute
ENCODING 253
SWIDTH 630 0
DWIDTH 7 0
BBX 6 8 1 -1
BITMAP
18
30
CC
CC
CC
7C
0C
F8
ENDCHAR
STARTCHAR thorn
ENCODING 254
SWIDTH 630 0
DWIDTH 7 0
BBX 6 7 1 0
BITMAP
C0
C0
D8
EC
CC
F8
C0
ENDCHAR
STARTCHAR ydieresis
ENCODING 255
SWIDTH 630 0
DWIDTH 7 0
BBX 6 8 1 -1
BITMAP
CC
00
CC
CC
CC
7C
0C
F8
ENDCHAR
STARTCHAR Aogonek
ENCODING 260
SWIDTH 1000 0
DWIDTH 7 0
BBX 6 8 1 -1
BITMAP
30
78
CC
CC
FC
CC
CC
04
ENDCHAR
STARTCHAR aogonek
ENCODING 261
SWIDTH 1000 0
DWIDTH 7 0
BBX 6 6 1 -1
BITMAP
78
0C
7C
CC
7C
04
ENDCHAR
STARTCHAR Cacute
ENCODING 262
SWIDTH 1000 0
DWIDTH 7 0
BBX 6 7 1 0
BITMAP
10
78
CC
C0
C0
CC
78
ENDCHAR
STARTCHAR cacute
ENCODING 263
SWIDTH 1000 0
DWIDTH 6 0
BBX 5 7 1 0
BITMAP
18
30
00
78
C0
C0
78
ENDCHAR
STARTCHAR Eogonek
ENCODING 280
SWIDTH 1000 0
DWIDTH 7 0
BBX 6 8 1 -1
BITMAP
FC
C0
C0
F8
C0
C0
FC
08
ENDCHAR
STARTCHAR eogonek
ENCODING 281
SWIDTH 1000 0
DWIDTH 7 0
BBX 6 6 1 -1
BITMAP
78
CC
FC
C0
78
10
ENDCHAR
STARTCHAR Lslash
ENCODING 321
SWIDTH 1000 0
DWIDTH 6 0
BBX 6 7 0 0
BITMAP
60
70
60
E0
60
60
7C
ENDCHAR
STARTCHAR lslash
ENCODING 322
SWIDTH 1000 0
DWIDTH 5 0
BBX 4 7 1 0
BITMAP
E0
70
60
E0
60
60
F0
ENDCHAR
STARTCHAR Nacute
ENCODING 323
SWIDTH 1000 0
DWIDTH 7 0
BBX 6 7 1 0
BITMAP
10
20
CC
EC
FC
DC
CC
ENDCHAR
STARTCHAR nacute
ENCODING 324
SWIDTH 1000 0
DWIDTH 7 0
BBX 6 7 1 0
BITMAP
18
30
00
F8
CC
CC
CC
ENDCHAR
STARTCHAR Sacute
ENCODING 346
SWIDTH 1000 0
DWIDTH 7 0
BBX 6 7 1 0
BITMAP
10
78
C0
78
0C
CC
78
ENDCHAR
STARTCHAR sacute
ENCODING 347
SWIDTH 1000 0
DWIDTH 7 0
BBX 6 7 1 0
BITMAP
08
10
7C
C0
78
0C
F8
ENDCHAR
STARTCHAR Zacute
ENCODING 377
SWIDTH 1000 0
DWIDTH 7 0
BBX 6 7 1 0
BITMAP
10
20
FC
0C
78
C0
FC
ENDCHAR
STARTCHAR zacute
ENCODING 378
SWIDTH 1000 0
DWIDTH 7 0
BBX 6 7 1 0
BITMAP
18
30
00
FC
18
60
FC
ENDCHAR
STARTCHAR Zdotaccent
ENCODING 379
SWIDTH 1000 0
DWIDTH 7 0
BBX 6 7 1 0
BITMAP
30
00
FC
0C
78
C0
FC
ENDCHAR
STARTCHAR zdotaccent
ENCODING 380
SWIDTH 1000 0
DWIDTH 7 0
BBX 6 6 1 0
BITMAP
30
00
FC
18
60
FC
ENDCHAR
ENDFONT
